# xmcd CD database file
#
# Track frame offsets:
#	150
#	8766
#	17891
#	25209
#	27376
#	34891
#	44052
#	51600
#	57260
#	63058
#	67391
#	74437
#	83239
#	89582
#	95587
#	102915
#	109180
#	113424
#	121060
#	126499
#	133997
#	140231
#	147762
#	153478
#	160825
#	167577
#	174537
#	181342
#	186233
#	193041
#	202578
#	207808
#	216981
#	227248
#	234489
#	241738
#
# Disc length: 3323 seconds
#
# Revision: 0
# Processed by: cddbd v1.5.2PL0 Copyright (c) Steve Scherf et al.
# Submitted via: CDex 1.51
#
DISCID=160cf924
DTITLE=Various Artist - Der volkstuemliche Hitmix
DYEAR=2010
DGENRE=Country
TTITLE0=So a schoener Tag
TTITLE1=Anton aus Tirol
TTITLE2=Dahoam is dahoam
TTITLE3=Frau Meier
TTITLE4=Gemma Bier trinken
TTITLE5=Koa Hiatatmadl
TTITLE6=Das Schäferlied
TTITLE7=Hallo Frau Nachbarin
TTITLE8=Amboss polka
TTITLE9=Zillertaler Hochzeitsmarsch
TTITLE10=Tränen passen nicht zu Dir
TTITLE11=Hey Dirndl, spürst du es so wie I
TTITLE12=Logo Logo
TTITLE13=Die längste Nacht der Welt
TTITLE14=Liechtensteiner Polka
TTITLE15=Steirerman san very good
TTITLE16=Drei weisse Birken
TTITLE17=Aus Böhmen kommt die Musik
TTITLE18=Rennsteiglied
TTITLE19=Rosamunde
TTITLE20=Die Rose vom Wörthersee
TTITLE21=Bergvagabunden
TTITLE22=Der Paul und sein Gaul
TTITLE23=Lebt denn dr alte Holzmichel noch
TTITLE24=I will lebn
TTITLE25=Ein Stern der deinen Namen trägt
TTITLE26=7 Sünden
TTITLE27=La Montanara
TTITLE28=Patrona Bavariae
TTITLE29=Die kleine Kneipe
TTITLE30=Kufsteinlied
TTITLE31=Herzilein
TTITLE32=Sierra Madre
TTITLE33=Schneewalzer
TTITLE34=Rot sind die Rosen
TTITLE35=Das Jungfrauenchor
EXTD=YEAR: 2010
EXTT0=
EXTT1=
EXTT2=
EXTT3=
EXTT4=
EXTT5=
EXTT6=
EXTT7=
EXTT8=
EXTT9=
EXTT10=
EXTT11=
EXTT12=
EXTT13=
EXTT14=
EXTT15=
EXTT16=
EXTT17=
EXTT18=
EXTT19=
EXTT20=
EXTT21=
EXTT22=
EXTT23=
EXTT24=
EXTT25=
EXTT26=
EXTT27=
EXTT28=
EXTT29=
EXTT30=
EXTT31=
EXTT32=
EXTT33=
EXTT34=
EXTT35=
PLAYORDER=
